<svg xmlns="http://www.w3.org/2000/svg" viewBox="0 0 1167.82 1167.82"><defs><style>.cls-1{fill:#7abdf7;}.cls-2{fill:#0d74f5;}.cls-3{fill:#4494f7;}.cls-4{fill:#005cf4;}.cls-5{fill:#186ef9;}.cls-6{fill:#0246f2;}.cls-7{fill:#0046f8;}.cls-8{fill:#0729f1;}</style></defs><title>资源 1</title><g id="图层_2" data-name="图层 2"><g id="图层_1-2" data-name="图层 1"><path class="cls-1" d="M521.05,521.05a264.44,264.44,0,0,0,125.72,0A264.65,264.65,0,0,1,840.64,327.17a264.64,264.64,0,0,0,7.59-62.85C848.23,118.34,729.89,0,583.91,0S319.59,118.34,319.59,264.32a264.64,264.64,0,0,0,7.59,62.85A264.67,264.67,0,0,1,521.05,521.05Z"/><path class="cls-2" d="M646.77,646.77a264.1,264.1,0,0,0-125.72,0A264.66,264.66,0,0,1,327.18,840.64a264.73,264.73,0,0,0-7.59,62.86c0,146,118.34,264.32,264.32,264.32S848.23,1049.48,848.23,903.5a264.73,264.73,0,0,0-7.59-62.86A264.64,264.64,0,0,1,646.77,646.77Z"/><path class="cls-3" d="M903.5,319.59a265.24,265.24,0,0,0-62.86,7.58A264.64,264.64,0,0,1,646.77,521.05a264.1,264.1,0,0,0,0,125.72A264.61,264.61,0,0,1,840.64,840.64a264.73,264.73,0,0,0,62.86,7.59c146,0,264.32-118.34,264.32-264.32S1049.48,319.59,903.5,319.59Z"/><path class="cls-4" d="M521.05,646.77a264.44,264.44,0,0,0,0-125.72A264.64,264.64,0,0,1,327.18,327.17a265.24,265.24,0,0,0-62.86-7.58C118.34,319.59,0,437.93,0,583.91S118.34,848.23,264.32,848.23a264.73,264.73,0,0,0,62.86-7.59A264.61,264.61,0,0,1,521.05,646.77Z"/><path class="cls-5" d="M646.77,521.05A264.64,264.64,0,0,0,840.64,327.17,264.65,264.65,0,0,0,646.77,521.05Z"/><path class="cls-6" d="M646.77,646.77A264.64,264.64,0,0,0,840.64,840.64,264.61,264.61,0,0,0,646.77,646.77Z"/><path class="cls-7" d="M521.05,521.05A264.67,264.67,0,0,0,327.18,327.17,264.64,264.64,0,0,0,521.05,521.05Z"/><path class="cls-8" d="M521.05,646.77A264.61,264.61,0,0,0,327.18,840.64,264.66,264.66,0,0,0,521.05,646.77Z"/></g></g></svg>